<svg width="140" height="140" viewBox="0 0 140 140" fill="none" xmlns="http://www.w3.org/2000/svg">
<path d="M107.513 53.1235L51.6968 20.6509C48.6766 18.9068 45.2485 17.9932 41.7608 18.0028C38.2732 18.0123 34.8502 18.9448 31.8396 20.7054C28.8289 22.466 26.3379 24.9921 24.6194 28.027C22.901 31.0619 22.0164 34.4976 22.0554 37.985V102.237C22.0554 107.478 24.1374 112.504 27.8433 116.21C31.5492 119.916 36.5754 121.998 41.8164 121.998C45.2857 121.992 48.6928 121.075 51.6968 119.34L107.513 87.3295C110.512 85.5937 113.002 83.0998 114.733 80.0979C116.464 77.096 117.375 73.6917 117.375 70.2265C117.375 66.7613 116.464 63.357 114.733 60.3551C113.002 57.3532 110.512 54.8593 107.513 53.1235Z" fill="#F4F4F4"/>
</svg>
