<svg width="120" height="120" viewBox="0 0 120 120" fill="none" xmlns="http://www.w3.org/2000/svg">
<circle cx="60.0008" cy="60.0001" r="60" fill="#464FE8"/>
<path d="M59.7609 35.3064C35.8209 35.3064 17.7609 44.3917 17.7609 56.4349C17.7609 66.7879 31.1589 74.9435 50.1429 77.0564L48.3789 78.7889C47.9852 79.1818 47.6727 79.6491 47.4595 80.1641C47.2463 80.679 47.1365 81.2313 47.1365 81.7892C47.1365 82.347 47.2463 82.8993 47.4595 83.4143C47.6727 83.9292 47.9852 84.3966 48.3789 84.7894C48.7693 85.1855 49.2338 85.4999 49.7456 85.7144C50.2574 85.9289 50.8064 86.0394 51.3609 86.0394C51.9153 86.0394 52.4643 85.9289 52.9761 85.7144C53.4879 85.4999 53.9524 85.1855 54.3429 84.7894L62.7429 76.338C63.1252 75.9361 63.425 75.4622 63.6249 74.9435C64.0449 73.9147 64.0449 72.7608 63.6249 71.732C63.425 71.2133 63.1252 70.7394 62.7429 70.3375L54.3429 61.8861C53.552 61.0904 52.4793 60.6434 51.3609 60.6434C50.2424 60.6434 49.1697 61.0904 48.3789 61.8861C47.588 62.6818 47.1437 63.761 47.1437 64.8863C47.1437 66.0117 47.588 67.0909 48.3789 67.8866L48.8829 68.3514C34.5609 66.3231 26.1609 60.6606 26.1609 56.4349C26.1609 51.2796 39.2649 43.7578 59.7609 43.7578C80.2569 43.7578 93.3609 51.2796 93.3609 56.4349C93.3609 59.9423 87.2709 64.8864 75.6789 67.4218C75.1302 67.5275 74.608 67.7424 74.1429 68.0537C73.6777 68.365 73.279 68.7666 72.97 69.2348C72.661 69.7031 72.448 70.2287 72.3434 70.7808C72.2388 71.333 72.2447 71.9006 72.3609 72.4504C72.4755 72.9948 72.696 73.5111 73.0095 73.9696C73.3231 74.428 73.7235 74.8197 74.1879 75.122C74.6523 75.4244 75.1715 75.6314 75.7157 75.7313C76.2598 75.8312 76.8183 75.822 77.3589 75.7042C92.6889 72.3236 101.761 65.1399 101.761 56.4349C101.761 44.3917 83.7009 35.3064 59.7609 35.3064Z" fill="white"/>
</svg>
