<svg width="36" height="30" viewBox="0 0 36 30" fill="none" xmlns="http://www.w3.org/2000/svg">
<path d="M35.1389 13.1377C35.1206 12.9762 35.0853 12.8172 35.0335 12.6633V12.5052C34.949 12.3245 34.8363 12.1584 34.6997 12.0132V12.0132L24.158 1.47154C24.0128 1.33488 23.8467 1.2222 23.666 1.13772H23.4904C23.3195 1.04637 23.1359 0.981217 22.9457 0.944458H5.27084C3.87292 0.944458 2.53227 1.49978 1.54379 2.48825C0.555319 3.47672 0 4.81738 0 6.21529V23.7847C0 25.1826 0.555319 26.5233 1.54379 27.5118C2.53227 28.5003 3.87292 29.0556 5.27084 29.0556H29.8681C31.266 29.0556 32.6066 28.5003 33.5951 27.5118C34.5836 26.5233 35.1389 25.1826 35.1389 23.7847V13.2431C35.1389 13.2431 35.1389 13.2431 35.1389 13.1377ZM24.5972 6.93564L29.1477 11.4861H26.3542C25.8882 11.4861 25.4413 11.301 25.1118 10.9715C24.7823 10.642 24.5972 10.1952 24.5972 9.72918V6.93564ZM31.625 23.7847C31.625 24.2507 31.4399 24.6976 31.1104 25.0271C30.7809 25.3566 30.334 25.5417 29.8681 25.5417H5.27084C4.80486 25.5417 4.35798 25.3566 4.02849 25.0271C3.699 24.6976 3.51389 24.2507 3.51389 23.7847V6.21529C3.51389 5.74932 3.699 5.30244 4.02849 4.97294C4.35798 4.64345 4.80486 4.45835 5.27084 4.45835H21.0833V9.72918C21.0833 11.1271 21.6387 12.4677 22.6271 13.4562C23.6156 14.4447 24.9563 15 26.3542 15H31.625V23.7847ZM8.78473 15H15.8125C16.2785 15 16.7254 14.8149 17.0549 14.4854C17.3843 14.1559 17.5695 13.709 17.5695 13.2431C17.5695 12.7771 17.3843 12.3302 17.0549 12.0007C16.7254 11.6712 16.2785 11.4861 15.8125 11.4861H8.78473C8.31875 11.4861 7.87187 11.6712 7.54238 12.0007C7.21289 12.3302 7.02778 12.7771 7.02778 13.2431C7.02778 13.709 7.21289 14.1559 7.54238 14.4854C7.87187 14.8149 8.31875 15 8.78473 15ZM8.78473 18.5139C8.31875 18.5139 7.87187 18.699 7.54238 19.0285C7.21289 19.358 7.02778 19.8049 7.02778 20.2708C7.02778 20.7368 7.21289 21.1837 7.54238 21.5132C7.87187 21.8427 8.31875 22.0278 8.78473 22.0278H26.3542C26.8201 22.0278 27.267 21.8427 27.5965 21.5132C27.926 21.1837 28.1111 20.7368 28.1111 20.2708C28.1111 19.8049 27.926 19.358 27.5965 19.0285C27.267 18.699 26.8201 18.5139 26.3542 18.5139H8.78473Z" fill="#686868"/>
</svg>
