<svg width="40" height="40" viewBox="0 0 40 40" fill="none" xmlns="http://www.w3.org/2000/svg">
<path d="M40 10.4792C40.0015 10.2161 39.951 9.95515 39.8515 9.71149C39.752 9.46784 39.6053 9.24622 39.42 9.05936L30.94 0.57999C30.7531 0.394641 30.5315 0.248002 30.2878 0.14848C30.0441 0.0489581 29.7832 -0.00148825 29.52 3.34261e-05C29.2568 -0.00148825 28.9958 0.0489581 28.7522 0.14848C28.5085 0.248002 28.2869 0.394641 28.1 0.57999L22.44 6.23957L0.580032 28.0979C0.39467 28.2848 0.24802 28.5064 0.148491 28.7501C0.0489617 28.9937 -0.00148836 29.2546 3.34285e-05 29.5178V37.9972C3.34285e-05 38.5276 0.210747 39.0363 0.585819 39.4113C0.960891 39.7864 1.4696 39.997 2.00003 39.997H10.48C10.7599 40.0123 11.0398 39.9685 11.3017 39.8686C11.5635 39.7687 11.8014 39.6149 12 39.4171L33.74 17.5587L39.42 11.9991C39.6025 11.8053 39.7513 11.5822 39.86 11.3392C39.8792 11.1798 39.8792 11.0186 39.86 10.8592C39.8693 10.7661 39.8693 10.6723 39.86 10.5792L40 10.4792ZM9.66002 35.9973H4.00003V30.3378L23.86 10.4792L29.52 16.1388L9.66002 35.9973ZM32.34 13.319L26.68 7.65946L29.52 4.83967L35.16 10.4792L32.34 13.319Z" fill="#939393"/>
</svg>
