<svg width="21" height="14" viewBox="0 0 21 14" fill="none" xmlns="http://www.w3.org/2000/svg">
<path d="M20.1947 1.41703C19.8255 1.04993 19.3259 0.843872 18.8052 0.843872C18.2845 0.843872 17.7849 1.04993 17.4156 1.41703L10.3396 8.39447L3.36218 1.41703C2.99288 1.04993 2.49332 0.843872 1.9726 0.843872C1.45188 0.843872 0.952323 1.04993 0.583027 1.41703C0.398285 1.60026 0.251652 1.81826 0.151585 2.05845C0.0515187 2.29864 0 2.55626 0 2.81646C0 3.07666 0.0515187 3.33429 0.151585 3.57447C0.251652 3.81466 0.398285 4.03266 0.583027 4.21589L8.94018 12.573C9.12342 12.7578 9.34141 12.9044 9.5816 13.0045C9.82179 13.1046 10.0794 13.1561 10.3396 13.1561C10.5998 13.1561 10.8574 13.1046 11.0976 13.0045C11.3378 12.9044 11.5558 12.7578 11.739 12.573L20.1947 4.21589C20.3795 4.03266 20.5261 3.81466 20.6262 3.57447C20.7263 3.33429 20.7778 3.07666 20.7778 2.81646C20.7778 2.55626 20.7263 2.29864 20.6262 2.05845C20.5261 1.81826 20.3795 1.60026 20.1947 1.41703Z" fill="#939393"/>
</svg>
