<svg width="125" height="125" viewBox="0 0 125 125" fill="none" xmlns="http://www.w3.org/2000/svg">
<circle cx="62.4999" cy="62.5" r="62.5" fill="#464FE8"/>
<path d="M62.2504 36.7772C37.3129 36.7772 18.5004 46.241 18.5004 58.7861C18.5004 69.5705 32.4567 78.0659 52.2317 80.2668L50.3942 82.0715C49.9841 82.4807 49.6586 82.9676 49.4365 83.504C49.2144 84.0404 49.1001 84.6157 49.1001 85.1968C49.1001 85.7779 49.2144 86.3532 49.4365 86.8896C49.6586 87.426 49.9841 87.9128 50.3942 88.3221C50.8009 88.7346 51.2848 89.0621 51.8179 89.2856C52.351 89.509 52.9229 89.6241 53.5004 89.6241C54.078 89.6241 54.6498 89.509 55.1829 89.2856C55.7161 89.0621 56.2 88.7346 56.6067 88.3221L65.3567 79.5185C65.755 79.0999 66.0672 78.6062 66.2754 78.0659C66.713 76.9942 66.713 75.7922 66.2754 74.7206C66.0672 74.1802 65.755 73.6866 65.3567 73.268L56.6067 64.4644C55.7828 63.6355 54.6655 63.1699 53.5004 63.1699C52.3354 63.1699 51.218 63.6355 50.3942 64.4644C49.5703 65.2933 49.1075 66.4175 49.1075 67.5897C49.1075 68.7619 49.5703 69.8861 50.3942 70.7149L50.9192 71.1991C36.0004 69.0863 27.2504 63.1879 27.2504 58.7861C27.2504 53.4159 40.9004 45.5808 62.2504 45.5808C83.6004 45.5808 97.2504 53.4159 97.2504 58.7861C97.2504 62.4396 90.9067 67.5897 78.8317 70.2307C78.2601 70.3409 77.7162 70.5647 77.2317 70.889C76.7471 71.2133 76.3318 71.6316 76.0099 72.1194C75.6881 72.6071 75.4662 73.1546 75.3572 73.7298C75.2483 74.3049 75.2545 74.8962 75.3754 75.4689C75.4949 76.036 75.7245 76.5738 76.0511 77.0514C76.3777 77.5289 76.7949 77.9369 77.2786 78.2518C77.7624 78.5668 78.3032 78.7825 78.87 78.8865C79.4369 78.9906 80.0185 78.981 80.5817 78.8582C96.5504 75.3368 106 67.8538 106 58.7861C106 46.241 87.1879 36.7772 62.2504 36.7772Z" fill="white"/>
</svg>
