<svg width="141" height="140" viewBox="0 0 141 140" fill="none" xmlns="http://www.w3.org/2000/svg">
<circle cx="70.533" cy="69.8756" r="69.592" fill="#D9D9D9"/>
<path d="M98.7391 53.0081C96.0855 46.9106 91.5058 41.8514 85.7018 38.6057C79.8978 35.36 73.1897 34.1068 66.6054 35.0383C60.0211 35.9697 53.9238 39.0344 49.2479 43.7627C44.5719 48.491 41.5753 54.622 40.7172 61.2163C36.5766 62.2079 32.9443 64.6856 30.5101 68.1788C28.0759 71.6721 27.0095 75.9377 27.5131 80.1655C28.0168 84.3933 30.0556 88.2889 33.2424 91.1126C36.4291 93.9362 40.5419 95.4911 44.7996 95.4822C45.9514 95.4822 47.056 95.0246 47.8705 94.2102C48.685 93.3957 49.1425 92.291 49.1425 91.1392C49.1425 89.9874 48.685 88.8827 47.8705 88.0683C47.056 87.2538 45.9514 86.7963 44.7996 86.7963C42.4959 86.7963 40.2866 85.8811 38.6577 84.2522C37.0288 82.6233 36.1137 80.414 36.1137 78.1104C36.1137 75.8067 37.0288 73.5974 38.6577 71.9685C40.2866 70.3396 42.4959 69.4244 44.7996 69.4244C45.9514 69.4244 47.056 68.9669 47.8705 68.1524C48.685 67.338 49.1425 66.2333 49.1425 65.0815C49.1536 59.945 50.9852 54.9787 54.3118 51.065C57.6384 47.1512 62.2447 44.5435 67.3124 43.7049C72.38 42.8664 77.5808 43.8514 81.9908 46.485C86.4008 49.1186 89.7344 53.2302 91.3995 58.0893C91.6477 58.8356 92.094 59.5005 92.6906 60.013C93.2872 60.5255 94.0118 60.8663 94.787 60.9991C97.6797 61.5458 100.302 63.056 102.227 65.2836C104.151 67.5112 105.265 70.325 105.386 73.2664C105.506 76.2078 104.628 79.1035 102.892 81.4815C101.157 83.8595 98.6674 85.5798 95.8293 86.362C94.712 86.6499 93.7549 87.3699 93.1685 88.3636C92.5821 89.3572 92.4144 90.5431 92.7024 91.6604C92.9903 92.7776 93.7103 93.7348 94.7039 94.3212C95.6976 94.9076 96.8835 95.0753 98.0008 94.7873C102.571 93.5796 106.623 90.9133 109.54 87.1935C112.457 83.4736 114.081 78.9034 114.165 74.1768C114.248 69.4502 112.787 64.8254 110.003 61.0049C107.219 57.1843 103.264 54.3765 98.7391 53.0081V53.0081ZM73.9408 61.998C73.5278 61.6026 73.0407 61.2927 72.5076 61.086C71.4503 60.6516 70.2643 60.6516 69.207 61.086C68.6739 61.2927 68.1868 61.6026 67.7738 61.998L54.7449 75.0269C53.9271 75.8447 53.4677 76.9538 53.4677 78.1104C53.4677 79.2669 53.9271 80.3761 54.7449 81.1939C55.5627 82.0116 56.6719 82.4711 57.8284 82.4711C58.985 82.4711 60.0941 82.0116 60.9119 81.1939L66.5143 75.548V99.8251C66.5143 100.977 66.9719 102.082 67.7864 102.896C68.6008 103.711 69.7055 104.168 70.8573 104.168C72.0091 104.168 73.1138 103.711 73.9282 102.896C74.7427 102.082 75.2002 100.977 75.2002 99.8251V75.548L80.8027 81.1939C81.2064 81.6009 81.6867 81.924 82.216 82.1445C82.7452 82.365 83.3128 82.4785 83.8862 82.4785C84.4595 82.4785 85.0271 82.365 85.5564 82.1445C86.0856 81.924 86.5659 81.6009 86.9697 81.1939C87.3767 80.7901 87.6998 80.3098 87.9203 79.7806C88.1408 79.2513 88.2543 78.6837 88.2543 78.1104C88.2543 77.537 88.1408 76.9694 87.9203 76.4402C87.6998 75.9109 87.3767 75.4306 86.9697 75.0269L73.9408 61.998Z" fill="#686868"/>
</svg>
