<svg width="60" height="59" viewBox="0 0 60 59" fill="none" xmlns="http://www.w3.org/2000/svg">
<path d="M33.3375 29.5072L43.805 19.064C44.2634 18.6056 44.5209 17.9839 44.5209 17.3356C44.5209 16.6874 44.2634 16.0657 43.805 15.6073C43.3466 15.1489 42.7249 14.8914 42.0766 14.8914C41.4284 14.8914 40.8067 15.1489 40.3483 15.6073L29.9051 26.0748L19.4619 15.6073C19.0035 15.1489 18.3818 14.8914 17.7336 14.8914C17.0853 14.8914 16.4636 15.1489 16.0052 15.6073C15.5468 16.0657 15.2893 16.6874 15.2893 17.3356C15.2893 17.9839 15.5468 18.6056 16.0052 19.064L26.4727 29.5072L16.0052 39.9503C15.7771 40.1766 15.596 40.4459 15.4724 40.7425C15.3488 41.0392 15.2852 41.3573 15.2852 41.6787C15.2852 42 15.3488 42.3182 15.4724 42.6149C15.596 42.9115 15.7771 43.1807 16.0052 43.407C16.2315 43.6352 16.5008 43.8163 16.7974 43.9399C17.094 44.0635 17.4122 44.1271 17.7336 44.1271C18.0549 44.1271 18.3731 44.0635 18.6698 43.9399C18.9664 43.8163 19.2356 43.6352 19.4619 43.407L29.9051 32.9395L40.3483 43.407C40.5746 43.6352 40.8438 43.8163 41.1405 43.9399C41.4371 44.0635 41.7553 44.1271 42.0766 44.1271C42.398 44.1271 42.7162 44.0635 43.0128 43.9399C43.3095 43.8163 43.5787 43.6352 43.805 43.407C44.0332 43.1807 44.2143 42.9115 44.3379 42.6149C44.4614 42.3182 44.5251 42 44.5251 41.6787C44.5251 41.3573 44.4614 41.0392 44.3379 40.7425C44.2143 40.4459 44.0332 40.1766 43.805 39.9503L33.3375 29.5072Z" fill="#4B4B4B"/>
</svg>
