<svg width="21" height="21" viewBox="0 0 21 21" fill="none" xmlns="http://www.w3.org/2000/svg">
<path d="M12.6658 10.4832L19.6375 3.52677C19.9427 3.22143 20.1143 2.8073 20.1143 2.37548C20.1143 1.94367 19.9427 1.52954 19.6375 1.22419C19.3322 0.918853 18.9181 0.747314 18.4863 0.747314C18.0546 0.747314 17.6405 0.918853 17.3352 1.22419L10.3798 8.19679L3.42441 1.22419C3.11911 0.918853 2.70504 0.747314 2.27328 0.747314C1.84153 0.747314 1.42745 0.918853 1.12216 1.22419C0.81686 1.52954 0.645345 1.94367 0.645345 2.37548C0.645345 2.8073 0.81686 3.22143 1.12216 3.52677L8.09377 10.4832L1.12216 17.4395C0.970195 17.5903 0.84958 17.7696 0.767268 17.9672C0.684957 18.1648 0.642578 18.3768 0.642578 18.5908C0.642578 18.8049 0.684957 19.0168 0.767268 19.2144C0.84958 19.412 0.970195 19.5914 1.12216 19.7421C1.27288 19.8941 1.4522 20.0147 1.64977 20.0971C1.84734 20.1794 2.05925 20.2218 2.27328 20.2218C2.48731 20.2218 2.69923 20.1794 2.8968 20.0971C3.09437 20.0147 3.27369 19.8941 3.42441 19.7421L10.3798 12.7695L17.3352 19.7421C17.4859 19.8941 17.6652 20.0147 17.8628 20.0971C18.0604 20.1794 18.2723 20.2218 18.4863 20.2218C18.7004 20.2218 18.9123 20.1794 19.1098 20.0971C19.3074 20.0147 19.4867 19.8941 19.6375 19.7421C19.7894 19.5914 19.91 19.412 19.9923 19.2144C20.0747 19.0168 20.117 18.8049 20.117 18.5908C20.117 18.3768 20.0747 18.1648 19.9923 17.9672C19.91 17.7696 19.7894 17.5903 19.6375 17.4395L12.6658 10.4832Z" fill="#686868"/>
</svg>
