<svg width="51" height="50" viewBox="0 0 51 50" fill="none" xmlns="http://www.w3.org/2000/svg">
<path d="M50.5 13.0991C50.5019 12.7701 50.4388 12.4439 50.3144 12.1394C50.19 11.8348 50.0067 11.5578 49.775 11.3242L39.175 0.724988C38.9414 0.493301 38.6643 0.310002 38.3597 0.1856C38.0551 0.0611976 37.729 -0.00186031 37.4 4.17826e-05C37.071 -0.00186031 36.7448 0.0611976 36.4402 0.1856C36.1356 0.310002 35.8586 0.493301 35.625 0.724988L28.55 7.79946L1.22504 35.1224C0.993337 35.356 0.810025 35.633 0.685613 35.9376C0.561202 36.2422 0.49814 36.5683 0.500042 36.8973V47.4965C0.500042 48.1595 0.763433 48.7953 1.23227 49.2641C1.70111 49.7329 2.337 49.9963 3.00004 49.9963H13.6C13.9498 50.0153 14.2998 49.9606 14.6271 49.8357C14.9544 49.7109 15.2518 49.5186 15.5 49.2714L42.675 21.9484L49.775 14.9989C50.0031 14.7566 50.1891 14.4778 50.325 14.174C50.349 13.9747 50.349 13.7733 50.325 13.574C50.3367 13.4577 50.3367 13.3404 50.325 13.2241L50.5 13.0991ZM12.575 44.9967H5.50003V37.9222L30.325 13.0991L37.4 20.1735L12.575 44.9967ZM40.925 16.6488L33.85 9.57433L37.4 6.04959L44.45 13.0991L40.925 16.6488Z" fill="#939393"/>
</svg>
